# xmcd CD database file
#
# Track frame offsets:
#	150
#	43587
#	77910
#	111345
#	126150
#	141797
#	164697
#	203232
#	235032
#	245675
#	280122
#
# Disc length: 4323 seconds
#
# Revision: 3
# Processed by: cddbd v1.5.2PL0 Copyright (c) Steve Scherf et al.
# Submitted via: CDex 1.51
#
DISCID=9f10e10b
DTITLE=Booker, James - Resurrection of the Bayou Maharajah
DYEAR=1900
DGENRE=R&B
TTITLE0=Slow Down - Bony Maronie - Knock on Wood - Grapevine - Classified
TTITLE1=Tico Tico - Papa Was a Rascal
TTITLE2=Lawdy Miss Clawdy - Ballad at the Maple Leaf
TTITLE3=Minute Waltz
TTITLE4=All by Myself
TTITLE5=Save Your Love for Me
TTITLE6=Junco Partner
TTITLE7=St. James Infirmary
TTITLE8=Gitanarias
TTITLE9=Life - Wine Spo-Dee-O-Dee - It Should Have Been Me
TTITLE10=Pop's Dilemma - Irene Goodnight
EXTD=
EXTT0=
EXTT1=
EXTT2=
EXTT3=
EXTT4=
EXTT5=
EXTT6=
EXTT7=
EXTT8=
EXTT9=
EXTT10=
PLAYORDER=
